<?xml version="1.0" encoding="UTF-8"?>
<svg id="Layer_1" data-name="Layer 1" xmlns="http://www.w3.org/2000/svg" viewBox="0 0 564.65 209.5">
  <defs>
    <style>
      .cls-1, .cls-2 {
        fill: #0db780;
      }

      .cls-3 {
        fill: none;
        stroke: #000;
        stroke-linejoin: round;
        stroke-width: 4.56px;
      }

      .cls-2 {
        fill-rule: evenodd;
      }
    </style>
  </defs>
  <g>
    <rect class="cls-1" x="54.24" y="37.49" width="89.71" height="86.04" rx="21.2" ry="21.2"/>
    <g>
      <polyline class="cls-3" points="68.16 95.96 88.74 76.76 103.89 91.03 130.04 65.07"/>
      <polyline class="cls-3" points="110.25 65.08 130.01 65.08 130.01 83.08"/>
    </g>
  </g>
  <g>
    <g>
      <path d="M283.89,167.19c-8.65,0-15.04-6.82-15.04-15.81s6.39-15.17,15.04-15.17h16.79v5.41h-16.79c-5.54,0-9.63,4.13-9.63,10.01s4.05,10.14,9.63,10.14h16.79v5.41h-16.79Z"/>
      <path d="M337.35,167.19l-4.64-7.8h-14.66l2.56-4.39h9.5l-6.9-11.59-14.06,23.77h-6.18l17.81-29.65c.64-1.07,1.45-1.75,2.64-1.75s1.96.68,2.6,1.75l17.85,29.65h-6.52Z"/>
      <path d="M356.53,158.59v-5.24h12.44c3.79,0,6.05-2.39,6.05-5.88s-2.26-5.84-6.05-5.84h-16.4v25.56h-5.37v-30.97h21.77c7.16,0,11.33,4.3,11.33,11.08s-4.17,11.29-11.33,11.29h-12.44Z"/>
      <path d="M384.43,167.19v-30.97h5.41v30.97h-5.41Z"/>
      <path d="M405.43,167.19v-25.56h-11.76v-5.41h28.93v5.41h-11.76v25.56h-5.41Z"/>
      <path d="M452.64,167.19l-4.64-7.8h-14.66l2.56-4.39h9.5l-6.9-11.59-14.06,23.77h-6.18l17.81-29.65c.64-1.07,1.45-1.75,2.64-1.75s1.96.68,2.6,1.75l17.85,29.65h-6.52Z"/>
      <path d="M462.48,167.19v-30.97h5.41v25.56h20.83v5.41h-26.24Z"/>
    </g>
    <g>
      <path d="M201.33,117.38c-20.26,0-35.24-15.97-35.24-37.03s14.97-35.54,35.24-35.54h17.67c20.96,0,35.54,14.47,35.54,35.54s-14.87,37.03-35.54,37.03h-17.67ZM219,104.71c13.38,0,22.86-10.08,22.86-23.76s-9.48-23.46-22.86-23.46h-17.67c-12.98,0-22.56,9.68-22.56,23.46s9.48,23.76,22.56,23.76h17.67Z"/>
      <path d="M351.16,117.38l-13.88-51.01-20.56,47.22c-1.4,3.09-3.39,4.79-6.49,4.79s-5.19-1.7-6.49-4.79l-20.46-47.22-13.88,51.01h-12.48l18.67-68.28c.9-3.49,2.9-5.19,6.29-5.19,2.7,0,5.19,1.5,6.39,4.29l22.36,51.31,22.36-51.31c1.2-2.79,3.39-4.29,6.09-4.29,3.09,0,5.09,1.7,6.09,5.19l18.57,68.28h-12.58Z"/>
      <polygon points="489.05 42.78 472.58 42.78 445.33 69.63 445.24 69.54 452.98 77.56 489.05 42.78"/>
      <polygon points="450.19 79.65 450.25 79.59 442.51 71.58 414.96 44.81 397.49 44.81 433.62 79.65 394.69 117.38 411.16 117.38 441.31 87.74 471.75 117.38 489.52 117.38 450.19 79.65"/>
      <g>
        <path class="cls-2" d="M389.45,54.98h-6.24v-10.95h-3.74v10.95h-6.24v36.4c5.9.35,11.37.57,16.23.67v-37.07h0Z"/>
        <path class="cls-2" d="M373.23,87.78v20.09h6.24v9.69h3.74v-9.69h6.24v-19.36c-5.06-.15-10.5-.4-16.23-.73h0Z"/>
      </g>
    </g>
  </g>
</svg>